<svg xmlns="http://www.w3.org/2000/svg" viewBox="0 0 1200 280" fill="none">
  <defs>
    <linearGradient id="bg" x1="0%" y1="0%" x2="100%" y2="100%">
      <stop offset="0%" stop-color="#0a0a0f"/>
      <stop offset="50%" stop-color="#050508"/>
      <stop offset="100%" stop-color="#030305"/>
    </linearGradient>
    <linearGradient id="accent" x1="0%" y1="0%" x2="100%" y2="0%">
      <stop offset="0%" stop-color="#c9a96e" stop-opacity="0.6"/>
      <stop offset="50%" stop-color="#c9a96e" stop-opacity="0.2"/>
      <stop offset="100%" stop-color="#c9a96e" stop-opacity="0"/>
    </linearGradient>
    <linearGradient id="line" x1="0%" y1="0%" x2="100%" y2="0%">
      <stop offset="0%" stop-color="#c9a96e" stop-opacity="0"/>
      <stop offset="20%" stop-color="#c9a96e" stop-opacity="0.3"/>
      <stop offset="80%" stop-color="#c9a96e" stop-opacity="0.3"/>
      <stop offset="100%" stop-color="#c9a96e" stop-opacity="0"/>
    </linearGradient>
    <radialGradient id="glow" cx="50%" cy="50%" r="50%">
      <stop offset="0%" stop-color="#c9a96e" stop-opacity="0.08"/>
      <stop offset="100%" stop-color="#c9a96e" stop-opacity="0"/>
    </radialGradient>
    <clipPath id="clip"><rect width="1200" height="280" rx="0"/></clipPath>
  </defs>
  
  <rect width="1200" height="280" fill="url(#bg)"/>
  
  <ellipse cx="600" cy="140" rx="400" ry="120" fill="url(#glow)"/>
  
  <g stroke="#ffffff" stroke-opacity="0.03" stroke-width="1">
    <line x1="0" y1="56" x2="1200" y2="56"/>
    <line x1="0" y1="112" x2="1200" y2="112"/>
    <line x1="0" y1="168" x2="1200" y2="168"/>
    <line x1="0" y1="224" x2="1200" y2="224"/>
    <line x1="200" y1="0" x2="200" y2="280"/>
    <line x1="400" y1="0" x2="400" y2="280"/>
    <line x1="600" y1="0" x2="600" y2="280"/>
    <line x1="800" y1="0" x2="800" y2="280"/>
    <line x1="1000" y1="0" x2="1000" y2="280"/>
  </g>
  
  <circle cx="600" cy="140" r="60" stroke="#c9a96e" stroke-opacity="0.08" stroke-width="1" fill="none"/>
  <circle cx="600" cy="140" r="90" stroke="#c9a96e" stroke-opacity="0.05" stroke-width="1" fill="none"/>
  <circle cx="600" cy="140" r="120" stroke="#c9a96e" stroke-opacity="0.03" stroke-width="1" fill="none"/>
  
  <path d="M40 40 L40 20 L60 20" stroke="#c9a96e" stroke-opacity="0.2" stroke-width="1" fill="none"/>
  <path d="M1160 40 L1160 20 L1140 20" stroke="#c9a96e" stroke-opacity="0.2" stroke-width="1" fill="none"/>
  <path d="M40 240 L40 260 L60 260" stroke="#c9a96e" stroke-opacity="0.2" stroke-width="1" fill="none"/>
  <path d="M1160 240 L1160 260 L1140 260" stroke="#c9a96e" stroke-opacity="0.2" stroke-width="1" fill="none"/>
  
  <circle cx="150" cy="60" r="1.5" fill="#ffffff" fill-opacity="0.3"/>
  <circle cx="350" cy="40" r="1" fill="#ffffff" fill-opacity="0.2"/>
  <circle cx="850" cy="50" r="1.5" fill="#ffffff" fill-opacity="0.25"/>
  <circle cx="1050" cy="80" r="1" fill="#ffffff" fill-opacity="0.3"/>
  <circle cx="200" cy="200" r="1" fill="#ffffff" fill-opacity="0.15"/>
  <circle cx="1000" cy="220" r="1.5" fill="#ffffff" fill-opacity="0.2"/>
  
  <line x1="200" y1="100" x2="1000" y2="100" stroke="url(#line)" stroke-width="1"/>
  <line x1="200" y1="180" x2="1000" y2="180" stroke="url(#line)" stroke-width="1"/>
  
  <text x="600" y="128" text-anchor="middle" font-family="Georgia, 'Times New Roman', serif" font-size="42" font-weight="300" fill="#e8e8ec" letter-spacing="8">inztun</text>
  <text x="600" y="160" text-anchor="middle" font-family="'Courier New', monospace" font-size="11" fill="#5a5a6a" letter-spacing="4">THE ARTISAN'S OPERATING SYSTEM</text>
  
  <rect x="540" y="175" width="120" height="1" fill="url(#accent)" rx="0.5"/>
</svg>